<svg width="346" height="42" viewBox="0 0 346 42" fill="none" xmlns="http://www.w3.org/2000/svg">
<path d="M47.9912 40.232C48.1192 40.232 48.1832 40.36 48.1832 40.616C48.2259 40.872 48.1619 41 47.9912 41C46.7112 41 45.6872 40.9787 44.9192 40.936L40.1832 40.872L35.6392 40.936C34.8712 40.9787 33.7832 41 32.3752 41C32.2472 41 32.1832 40.872 32.1832 40.616C32.1832 40.36 32.2472 40.232 32.3752 40.232C33.6979 40.232 34.6579 40.1253 35.2552 39.912C35.8952 39.6987 36.3219 39.2933 36.5352 38.696C36.7486 38.056 36.8126 37.096 36.7272 35.816L35.8312 5.288L23.5432 40.552C23.4579 40.7227 23.3086 40.808 23.0952 40.808C22.8392 40.808 22.6472 40.7013 22.5192 40.488L8.31124 6.888L8.18324 32.68C8.09791 35.0267 8.50324 36.8827 9.39924 38.248C10.3379 39.5707 11.6179 40.232 13.2392 40.232C13.3672 40.232 13.4312 40.36 13.4312 40.616C13.4312 40.872 13.3672 41 13.2392 41C12.1726 41 11.3192 40.9787 10.6792 40.936L6.90324 40.872L3.57524 40.936C2.93524 40.9787 2.01791 41 0.823243 41C0.73791 41 0.695243 40.872 0.695243 40.616C0.695243 40.36 0.73791 40.232 0.823243 40.232C2.44458 40.232 3.72458 39.5707 4.66324 38.248C5.64458 36.9253 6.13524 35.1333 6.13524 32.872L6.45524 3.88C5.13258 2.472 3.34058 1.768 1.07924 1.768C0.951243 1.768 0.887244 1.64 0.887244 1.384C0.887244 1.128 0.951243 1 1.07924 1C1.71924 1 2.25258 1.02133 2.67924 1.064L5.43124 1.128L9.65524 1.064C10.1246 1.02133 10.7006 1 11.3832 1C11.9379 1 12.3859 1.21333 12.7272 1.64C13.1112 2.06667 13.5806 2.96267 14.1352 4.328L25.3992 30.632L35.0632 2.6C35.1912 2.13067 35.4472 1.74667 35.8312 1.448C36.2579 1.14933 36.7486 1 37.3032 1C37.9859 1 38.5619 1.02133 39.0312 1.064L41.9112 1.128L44.7912 1.064C45.2179 1.02133 45.8366 1 46.6472 1C46.7752 1 46.8392 1.128 46.8392 1.384C46.8392 1.64 46.7966 1.768 46.7112 1.768C45.3459 1.768 44.3219 2.00266 43.6392 2.472C42.9992 2.89867 42.6792 3.73067 42.6792 4.968C42.6792 5.43733 42.7006 5.8 42.7432 6.056L43.6392 35.816C43.7246 37.096 43.8739 38.056 44.0872 38.696C44.3432 39.2933 44.7486 39.6987 45.3032 39.912C45.8579 40.1253 46.7539 40.232 47.9912 40.232ZM94.3087 40.232C94.4367 40.232 94.5007 40.36 94.5007 40.616C94.5007 40.872 94.4367 41 94.3087 41C93.5407 41 92.3461 40.9573 90.7247 40.872C88.9327 40.7867 87.5034 40.744 86.4367 40.744C85.3274 40.744 83.9621 40.7867 82.3407 40.872C80.8047 40.9573 79.6741 41 78.9487 41C78.7781 41 78.6927 40.872 78.6927 40.616C78.6927 40.36 78.7781 40.232 78.9487 40.232C80.2287 40.232 81.1461 40.104 81.7007 39.848C82.2554 39.5493 82.5327 39.0373 82.5327 38.312C82.5327 37.672 82.2767 36.776 81.7647 35.624L76.1327 22.12H66.0207L61.6687 32.744C60.9861 34.3653 60.6447 35.6667 60.6447 36.648C60.6447 37.8853 61.1354 38.8027 62.1167 39.4C63.0981 39.9547 64.6127 40.232 66.6607 40.232C66.8314 40.232 66.9167 40.36 66.9167 40.616C66.9167 40.872 66.8101 41 66.5967 41C66.0421 41 64.8261 40.9573 62.9487 40.872C60.8154 40.7867 59.1941 40.744 58.0847 40.744C57.0607 40.744 55.8661 40.7867 54.5007 40.872C53.3061 40.9573 52.3247 41 51.5567 41C51.3861 41 51.3007 40.872 51.3007 40.616C51.3007 40.36 51.3861 40.232 51.5567 40.232C52.8367 40.232 54.2234 39.5493 55.7167 38.184C57.2527 36.776 58.5754 34.8133 59.6847 32.296L73.1887 0.424C73.1887 0.295999 73.3381 0.231998 73.6367 0.231998C74.0207 0.231998 74.2981 0.317332 74.4687 0.487999L88.8047 35.624C89.4447 37.1173 89.9141 38.12 90.2127 38.632C90.5541 39.144 91.0234 39.5493 91.6207 39.848C92.2181 40.104 93.1141 40.232 94.3087 40.232ZM66.7887 20.328H75.4287L71.0767 9.896L66.7887 20.328ZM134.52 40.232C134.69 40.232 134.776 40.36 134.776 40.616C134.776 40.872 134.69 41 134.52 41H124.408C124.152 41 123.554 40.1253 122.616 38.376C121.677 36.584 120.546 34.1307 119.224 31.016C117.944 27.9013 116.642 24.4027 115.32 20.52C114.466 20.6053 113.784 20.648 113.272 20.648C112.589 20.648 111.736 20.6053 110.712 20.52V35.816C110.712 37.096 110.797 38.0347 110.968 38.632C111.181 39.2293 111.522 39.656 111.992 39.912C112.504 40.1253 113.272 40.232 114.296 40.232C114.509 40.232 114.616 40.36 114.616 40.616C114.616 40.872 114.509 41 114.296 41C113.101 41 112.141 40.9787 111.416 40.936L107.128 40.872L102.776 40.936C102.008 40.9787 100.984 41 99.7037 41C99.5331 41 99.4264 40.872 99.3837 40.616C99.3837 40.36 99.4691 40.232 99.6397 40.232C100.877 40.232 101.773 40.1253 102.328 39.912C102.925 39.656 103.309 39.2293 103.48 38.632C103.693 38.0347 103.778 37.096 103.736 35.816L103.672 6.184C103.672 4.392 103.416 3.21866 102.904 2.664C102.392 2.06666 101.41 1.768 99.9597 1.768C99.7891 1.768 99.7037 1.64 99.7037 1.384C99.7037 1.128 99.7891 1 99.9597 1L102.968 1.064C104.674 1.14933 106.061 1.192 107.128 1.192C107.853 1.192 108.557 1.17066 109.24 1.128C109.922 1.08533 110.52 1.04267 111.032 1C112.312 0.871999 113.485 0.807999 114.552 0.807999C118.776 0.807999 121.954 1.512 124.088 2.92C126.264 4.28533 127.352 6.20533 127.352 8.68C127.352 10.6853 126.754 12.584 125.56 14.376C124.365 16.168 122.786 17.6187 120.824 18.728C123.213 24.7013 125.154 29.224 126.648 32.296C128.184 35.3253 129.528 37.416 130.68 38.568C131.874 39.6773 133.154 40.232 134.52 40.232ZM110.648 18.6C111.672 18.7707 112.866 18.856 114.232 18.856C116.45 18.856 117.986 18.2373 118.84 17C119.736 15.7627 120.184 13.7573 120.184 10.984C120.184 7.95467 119.565 5.71467 118.328 4.264C117.133 2.81333 115.704 2.088 114.04 2.088C113.016 2.088 112.29 2.19466 111.864 2.408C111.48 2.57866 111.202 2.94133 111.032 3.496C110.904 4.008 110.797 4.94667 110.712 6.312L110.648 18.6ZM179.116 40.232C179.244 40.232 179.308 40.36 179.308 40.616C179.308 40.872 179.244 41 179.116 41C178.348 41 177.154 40.9573 175.532 40.872C173.74 40.7867 172.311 40.744 171.244 40.744C170.135 40.744 168.77 40.7867 167.148 40.872C165.612 40.9573 164.482 41 163.756 41C163.586 41 163.5 40.872 163.5 40.616C163.5 40.36 163.586 40.232 163.756 40.232C165.036 40.232 165.954 40.104 166.508 39.848C167.063 39.5493 167.34 39.0373 167.34 38.312C167.34 37.672 167.084 36.776 166.572 35.624L160.94 22.12H150.828L146.476 32.744C145.794 34.3653 145.452 35.6667 145.452 36.648C145.452 37.8853 145.943 38.8027 146.924 39.4C147.906 39.9547 149.42 40.232 151.468 40.232C151.639 40.232 151.724 40.36 151.724 40.616C151.724 40.872 151.618 41 151.404 41C150.85 41 149.634 40.9573 147.756 40.872C145.623 40.7867 144.002 40.744 142.892 40.744C141.868 40.744 140.674 40.7867 139.308 40.872C138.114 40.9573 137.132 41 136.364 41C136.194 41 136.108 40.872 136.108 40.616C136.108 40.36 136.194 40.232 136.364 40.232C137.644 40.232 139.031 39.5493 140.524 38.184C142.06 36.776 143.383 34.8133 144.492 32.296L157.996 0.424C157.996 0.295999 158.146 0.231998 158.444 0.231998C158.828 0.231998 159.106 0.317332 159.276 0.487999L173.612 35.624C174.252 37.1173 174.722 38.12 175.02 38.632C175.362 39.144 175.831 39.5493 176.428 39.848C177.026 40.104 177.922 40.232 179.116 40.232ZM151.596 20.328H160.236L155.884 9.896L151.596 20.328ZM224.639 40.232C224.767 40.232 224.831 40.36 224.831 40.616C224.874 40.872 224.81 41 224.639 41H218.111C215.594 41 214.015 40.872 213.375 40.616C212.778 40.36 211.775 39.1227 210.367 36.904C209.002 34.6853 207.615 32.6373 206.207 30.76L197.951 19.56L195.455 22.056V35.816C195.455 37.2667 195.519 38.2693 195.647 38.824C195.775 39.336 196.117 39.6987 196.671 39.912C197.269 40.1253 198.293 40.232 199.743 40.232C199.829 40.232 199.871 40.36 199.871 40.616C199.871 40.872 199.829 41 199.743 41C198.335 41 197.269 40.9787 196.543 40.936L191.743 40.872L187.327 40.936C186.517 40.9787 185.429 41 184.063 41C183.978 41 183.935 40.872 183.935 40.616C183.935 40.36 183.978 40.232 184.063 40.232C185.386 40.232 186.346 40.1253 186.943 39.912C187.541 39.6987 187.946 39.2933 188.159 38.696C188.373 38.056 188.479 37.096 188.479 35.816V6.184C188.479 4.904 188.373 3.96533 188.159 3.368C187.946 2.77066 187.541 2.36533 186.943 2.152C186.346 1.896 185.45 1.768 184.255 1.768C184.127 1.768 184.063 1.64 184.063 1.384C184.063 1.128 184.127 1 184.255 1L187.327 1.064C189.205 1.14933 190.719 1.192 191.871 1.192C193.023 1.192 194.581 1.14933 196.543 1.064L199.807 1C199.893 1 199.935 1.128 199.935 1.384C199.935 1.64 199.893 1.768 199.807 1.768C198.527 1.768 197.589 1.896 196.991 2.152C196.394 2.408 195.989 2.83467 195.775 3.432C195.605 4.02933 195.498 4.98933 195.455 6.312V20.072L207.743 7.464C208.853 6.35467 209.407 5.288 209.407 4.264C209.407 3.496 209.109 2.89867 208.511 2.472C207.914 2.00266 207.103 1.768 206.079 1.768C205.909 1.768 205.823 1.64 205.823 1.384C205.823 1.128 205.887 1 206.015 1L209.535 1.064C211.925 1.14933 213.802 1.192 215.167 1.192C216.618 1.192 218.111 1.14933 219.647 1.064L222.079 1C222.207 1 222.271 1.128 222.271 1.384C222.271 1.64 222.207 1.768 222.079 1.768C220.202 1.768 218.133 2.32266 215.871 3.432C213.61 4.49866 211.519 5.97066 209.599 7.848L202.431 15.016L211.391 27.176C214.634 31.4853 216.917 34.472 218.239 36.136C219.605 37.7573 220.714 38.8453 221.567 39.4C222.463 39.9547 223.487 40.232 224.639 40.232ZM260.467 30.824C260.552 30.7387 260.659 30.696 260.787 30.696C260.915 30.696 261.043 30.7387 261.171 30.824C261.299 30.8667 261.341 30.9093 261.299 30.952C260.872 33.7253 260.659 36.7547 260.659 40.04C260.659 40.3813 260.595 40.6373 260.467 40.808C260.339 40.936 260.083 41 259.699 41H230.515C230.344 41 230.259 40.872 230.259 40.616C230.259 40.36 230.323 40.232 230.451 40.232C231.731 40.232 232.648 40.1253 233.203 39.912C233.8 39.6987 234.184 39.2933 234.355 38.696C234.568 38.0987 234.675 37.1387 234.675 35.816V6.184C234.675 4.904 234.568 3.96533 234.355 3.368C234.141 2.77066 233.736 2.36533 233.139 2.152C232.541 1.896 231.645 1.768 230.451 1.768C230.323 1.768 230.237 1.64 230.195 1.384C230.195 1.128 230.237 1 230.323 1H257.907C258.248 1 258.419 1.192 258.419 1.576L258.547 10.024C258.547 10.152 258.419 10.216 258.163 10.216C257.949 10.216 257.821 10.1733 257.779 10.088C257.053 7.69866 255.731 5.82133 253.811 4.456C251.933 3.048 249.693 2.344 247.091 2.344H245.875C244.552 2.344 243.592 2.45066 242.995 2.664C242.44 2.83466 242.077 3.176 241.907 3.688C241.736 4.2 241.629 5.05333 241.587 6.248V19.304H249.587C251.763 19.304 253.363 18.92 254.387 18.152C255.411 17.384 255.923 16.1467 255.923 14.44C255.923 14.2693 256.072 14.184 256.371 14.184C256.669 14.184 256.819 14.2907 256.819 14.504L256.755 18.024C256.712 18.536 256.691 19.2613 256.691 20.2C256.691 21.5653 256.712 22.5893 256.755 23.272L256.819 26.728C256.819 26.9413 256.691 27.048 256.435 27.048C256.307 27.048 256.179 27.0267 256.051 26.984C255.965 26.8987 255.923 26.8133 255.923 26.728C255.923 24.8933 255.347 23.5067 254.195 22.568C253.085 21.5867 251.507 21.096 249.459 21.096H241.587V35.56C241.587 37.2667 241.843 38.376 242.355 38.888C242.909 39.4 244.04 39.656 245.747 39.656H247.539C250.312 39.656 252.851 38.8667 255.155 37.288C257.459 35.6667 259.229 33.512 260.467 30.824ZM276.996 7.08C276.996 8.616 277.401 10.0027 278.212 11.24C279.022 12.4773 280.004 13.5653 281.156 14.504C282.35 15.4 283.95 16.488 285.956 17.768C288.132 19.176 289.838 20.392 291.076 21.416C292.356 22.44 293.444 23.6773 294.34 25.128C295.236 26.536 295.684 28.1573 295.684 29.992C295.684 33.6187 294.404 36.4987 291.844 38.632C289.326 40.7227 286.062 41.768 282.052 41.768C280.132 41.768 278.084 41.512 275.908 41C273.732 40.4453 272.281 39.848 271.556 39.208C271.342 39.08 271.193 38.952 271.108 38.824C271.065 38.6533 271.022 38.376 270.98 37.992L270.724 27.816C270.681 27.6453 270.766 27.5387 270.98 27.496C271.236 27.4533 271.406 27.5173 271.492 27.688C272.686 30.1627 273.796 32.2533 274.82 33.96C275.886 35.624 277.166 37.0747 278.66 38.312C280.153 39.5493 281.838 40.168 283.716 40.168C287.47 40.168 289.348 38.12 289.348 34.024C289.348 32.0613 288.9 30.3333 288.004 28.84C287.15 27.3467 286.084 26.1093 284.804 25.128C283.566 24.104 281.902 22.9093 279.812 21.544C277.892 20.3067 276.356 19.24 275.204 18.344C274.052 17.4053 273.07 16.296 272.26 15.016C271.492 13.736 271.108 12.2853 271.108 10.664C271.108 8.36 271.748 6.44 273.028 4.904C274.35 3.32533 276.036 2.17333 278.084 1.448C280.132 0.679998 282.308 0.295998 284.612 0.295998C286.105 0.295998 287.662 0.445332 289.284 0.743999C290.948 0.999999 292.228 1.32 293.124 1.704C293.508 1.91733 293.764 2.13066 293.892 2.344C294.02 2.51466 294.084 2.728 294.084 2.984V12.392C294.084 12.52 293.977 12.6267 293.764 12.712C293.55 12.7547 293.401 12.712 293.316 12.584C293.188 12.328 292.718 11.24 291.908 9.32C291.14 7.35733 289.945 5.608 288.324 4.072C286.745 2.49333 284.932 1.704 282.884 1.704C281.177 1.704 279.769 2.216 278.66 3.24C277.55 4.22133 276.996 5.50133 276.996 7.08ZM345.148 40.232C345.234 40.232 345.276 40.36 345.276 40.616C345.276 40.872 345.234 41 345.148 41C343.954 41 342.972 40.9787 342.204 40.936L337.404 40.872L332.796 40.936C331.986 40.9787 330.876 41 329.468 41C329.383 41 329.319 40.872 329.276 40.616C329.276 40.36 329.34 40.232 329.468 40.232C330.791 40.232 331.73 40.1253 332.284 39.912C332.882 39.6987 333.266 39.2933 333.436 38.696C333.607 38.0987 333.692 37.1387 333.692 35.816V21.096H315.26V35.816C315.26 37.096 315.367 38.0347 315.58 38.632C315.836 39.2293 316.263 39.656 316.86 39.912C317.458 40.1253 318.396 40.232 319.676 40.232C319.804 40.232 319.868 40.36 319.868 40.616C319.868 40.872 319.804 41 319.676 41C318.268 41 317.18 40.9787 316.412 40.936L311.676 40.872L307.26 40.936C306.45 40.9787 305.383 41 304.06 41C303.932 41 303.868 40.872 303.868 40.616C303.868 40.36 303.932 40.232 304.06 40.232C305.34 40.232 306.258 40.1253 306.812 39.912C307.41 39.6987 307.794 39.2933 307.964 38.696C308.178 38.0987 308.284 37.1387 308.284 35.816V6.184C308.327 4.392 308.071 3.21866 307.516 2.664C306.962 2.06666 305.81 1.768 304.06 1.768C303.932 1.768 303.868 1.64 303.868 1.384C303.868 1.128 303.932 1 304.06 1L307.132 1.064C309.01 1.14933 310.524 1.192 311.676 1.192C312.828 1.192 314.386 1.14933 316.348 1.064L319.612 1C319.698 1 319.74 1.128 319.74 1.384C319.74 1.64 319.698 1.768 319.612 1.768C318.332 1.768 317.394 1.896 316.796 2.152C316.199 2.408 315.794 2.856 315.58 3.496C315.41 4.09333 315.303 5.032 315.26 6.312V19.304H333.628V6.312C333.628 4.47733 333.351 3.26133 332.796 2.664C332.284 2.06666 331.154 1.768 329.404 1.768C329.319 1.768 329.255 1.64 329.212 1.384C329.212 1.128 329.276 1 329.404 1L332.54 1.064C334.418 1.14933 335.954 1.192 337.148 1.192C338.3 1.192 339.815 1.14933 341.692 1.064L344.956 1C345.084 1 345.148 1.128 345.148 1.384C345.148 1.64 345.084 1.768 344.956 1.768C343.676 1.768 342.738 1.896 342.14 2.152C341.586 2.36533 341.202 2.77066 340.988 3.368C340.775 3.96533 340.626 4.904 340.54 6.184V35.816C340.54 37.0533 340.668 37.992 340.924 38.632C341.223 39.2293 341.692 39.656 342.332 39.912C342.972 40.1253 343.911 40.232 345.148 40.232Z" fill="#DCCA87"/>
</svg>
