<svg width="237" height="30" viewBox="0 0 237 30" fill="none" xmlns="http://www.w3.org/2000/svg">
<path d="M32.5565 28.472C32.6445 28.472 32.6885 28.56 32.6885 28.736C32.7178 28.912 32.6738 29 32.5565 29C31.6765 29 30.9725 28.9853 30.4445 28.956L27.1885 28.912L24.0645 28.956C23.5365 28.9853 22.7885 29 21.8205 29C21.7325 29 21.6885 28.912 21.6885 28.736C21.6885 28.56 21.7325 28.472 21.8205 28.472C22.7298 28.472 23.3898 28.3987 23.8005 28.252C24.2405 28.1053 24.5338 27.8267 24.6805 27.416C24.8271 26.976 24.8711 26.316 24.8125 25.436L24.1965 4.448L15.7485 28.692C15.6898 28.8093 15.5871 28.868 15.4405 28.868C15.2645 28.868 15.1325 28.7947 15.0445 28.648L5.27648 5.548L5.18848 23.28C5.12981 24.8933 5.40848 26.1693 6.02448 27.108C6.66981 28.0173 7.54981 28.472 8.66448 28.472C8.75248 28.472 8.79648 28.56 8.79648 28.736C8.79648 28.912 8.75248 29 8.66448 29C7.93115 29 7.34448 28.9853 6.90448 28.956L4.30848 28.912L2.02048 28.956C1.58048 28.9853 0.949814 29 0.128481 29C0.0698141 29 0.0404808 28.912 0.0404808 28.736C0.0404808 28.56 0.0698141 28.472 0.128481 28.472C1.24315 28.472 2.12315 28.0173 2.76848 27.108C3.44315 26.1987 3.78048 24.9667 3.78048 23.412L4.00048 3.48C3.09115 2.512 1.85915 2.028 0.304481 2.028C0.216481 2.028 0.172481 1.94 0.172481 1.764C0.172481 1.588 0.216481 1.5 0.304481 1.5C0.744481 1.5 1.11115 1.51467 1.40448 1.544L3.29648 1.588L6.20048 1.544C6.52315 1.51467 6.91915 1.5 7.38848 1.5C7.76981 1.5 8.07781 1.64667 8.31248 1.94C8.57648 2.23333 8.89915 2.84933 9.28048 3.788L17.0245 21.872L23.6685 2.6C23.7565 2.27733 23.9325 2.01333 24.1965 1.808C24.4898 1.60267 24.8271 1.5 25.2085 1.5C25.6778 1.5 26.0738 1.51467 26.3965 1.544L28.3765 1.588L30.3565 1.544C30.6498 1.51467 31.0751 1.5 31.6325 1.5C31.7205 1.5 31.7645 1.588 31.7645 1.764C31.7645 1.94 31.7351 2.028 31.6765 2.028C30.7378 2.028 30.0338 2.18933 29.5645 2.512C29.1245 2.80533 28.9045 3.37733 28.9045 4.228C28.9045 4.55066 28.9191 4.8 28.9485 4.976L29.5645 25.436C29.6231 26.316 29.7258 26.976 29.8725 27.416C30.0485 27.8267 30.3271 28.1053 30.7085 28.252C31.0898 28.3987 31.7058 28.472 32.5565 28.472ZM64.3998 28.472C64.4878 28.472 64.5318 28.56 64.5318 28.736C64.5318 28.912 64.4878 29 64.3998 29C63.8718 29 63.0504 28.9707 61.9358 28.912C60.7038 28.8533 59.7211 28.824 58.9878 28.824C58.2251 28.824 57.2864 28.8533 56.1718 28.912C55.1158 28.9707 54.3384 29 53.8398 29C53.7224 29 53.6638 28.912 53.6638 28.736C53.6638 28.56 53.7224 28.472 53.8398 28.472C54.7198 28.472 55.3504 28.384 55.7318 28.208C56.1131 28.0027 56.3038 27.6507 56.3038 27.152C56.3038 26.712 56.1278 26.096 55.7758 25.304L51.9038 16.02H44.9518L41.9598 23.324C41.4904 24.4387 41.2558 25.3333 41.2558 26.008C41.2558 26.8587 41.5931 27.4893 42.2678 27.9C42.9424 28.2813 43.9838 28.472 45.3918 28.472C45.5091 28.472 45.5678 28.56 45.5678 28.736C45.5678 28.912 45.4944 29 45.3478 29C44.9664 29 44.1304 28.9707 42.8398 28.912C41.3731 28.8533 40.2584 28.824 39.4958 28.824C38.7918 28.824 37.9704 28.8533 37.0318 28.912C36.2104 28.9707 35.5358 29 35.0078 29C34.8904 29 34.8318 28.912 34.8318 28.736C34.8318 28.56 34.8904 28.472 35.0078 28.472C35.8878 28.472 36.8411 28.0027 37.8678 27.064C38.9238 26.096 39.8331 24.7467 40.5958 23.016L49.8798 1.104C49.8798 1.016 49.9824 0.971999 50.1878 0.971999C50.4518 0.971999 50.6424 1.03067 50.7598 1.148L60.6158 25.304C61.0558 26.3307 61.3784 27.02 61.5838 27.372C61.8184 27.724 62.1411 28.0027 62.5518 28.208C62.9624 28.384 63.5784 28.472 64.3998 28.472ZM45.4798 14.788H51.4198L48.4278 7.616L45.4798 14.788ZM92.0448 28.472C92.1622 28.472 92.2208 28.56 92.2208 28.736C92.2208 28.912 92.1622 29 92.0448 29H85.0928C84.9168 29 84.5062 28.3987 83.8608 27.196C83.2155 25.964 82.4382 24.2773 81.5288 22.136C80.6488 19.9947 79.7542 17.5893 78.8448 14.92C78.2582 14.9787 77.7888 15.008 77.4368 15.008C76.9675 15.008 76.3808 14.9787 75.6768 14.92V25.436C75.6768 26.316 75.7355 26.9613 75.8528 27.372C75.9995 27.7827 76.2342 28.076 76.5568 28.252C76.9088 28.3987 77.4368 28.472 78.1408 28.472C78.2875 28.472 78.3608 28.56 78.3608 28.736C78.3608 28.912 78.2875 29 78.1408 29C77.3195 29 76.6595 28.9853 76.1608 28.956L73.2128 28.912L70.2208 28.956C69.6928 28.9853 68.9888 29 68.1088 29C67.9915 29 67.9182 28.912 67.8888 28.736C67.8888 28.56 67.9475 28.472 68.0648 28.472C68.9155 28.472 69.5315 28.3987 69.9128 28.252C70.3235 28.076 70.5875 27.7827 70.7048 27.372C70.8515 26.9613 70.9102 26.316 70.8808 25.436L70.8368 5.064C70.8368 3.832 70.6608 3.02533 70.3088 2.644C69.9568 2.23333 69.2822 2.028 68.2848 2.028C68.1675 2.028 68.1088 1.94 68.1088 1.764C68.1088 1.588 68.1675 1.5 68.2848 1.5L70.3528 1.544C71.5262 1.60267 72.4795 1.632 73.2128 1.632C73.7115 1.632 74.1955 1.61733 74.6648 1.588C75.1342 1.55867 75.5448 1.52933 75.8968 1.5C76.7768 1.412 77.5835 1.368 78.3168 1.368C81.2208 1.368 83.4062 1.852 84.8728 2.82C86.3688 3.75867 87.1168 5.07867 87.1168 6.78C87.1168 8.15867 86.7062 9.464 85.8848 10.696C85.0635 11.928 83.9782 12.9253 82.6288 13.688C84.2715 17.7947 85.6062 20.904 86.6328 23.016C87.6888 25.0987 88.6128 26.536 89.4048 27.328C90.2262 28.0907 91.1062 28.472 92.0448 28.472ZM75.6328 13.6C76.3368 13.7173 77.1582 13.776 78.0968 13.776C79.6222 13.776 80.6782 13.3507 81.2648 12.5C81.8808 11.6493 82.1888 10.2707 82.1888 8.364C82.1888 6.28133 81.7635 4.74133 80.9128 3.744C80.0915 2.74667 79.1088 2.248 77.9648 2.248C77.2608 2.248 76.7622 2.32133 76.4688 2.468C76.2048 2.58533 76.0142 2.83467 75.8968 3.216C75.8088 3.568 75.7355 4.21333 75.6768 5.152L75.6328 13.6ZM122.705 28.472C122.793 28.472 122.837 28.56 122.837 28.736C122.837 28.912 122.793 29 122.705 29C122.177 29 121.356 28.9707 120.241 28.912C119.009 28.8533 118.026 28.824 117.293 28.824C116.53 28.824 115.592 28.8533 114.477 28.912C113.421 28.9707 112.644 29 112.145 29C112.028 29 111.969 28.912 111.969 28.736C111.969 28.56 112.028 28.472 112.145 28.472C113.025 28.472 113.656 28.384 114.037 28.208C114.418 28.0027 114.609 27.6507 114.609 27.152C114.609 26.712 114.433 26.096 114.081 25.304L110.209 16.02H103.257L100.265 23.324C99.7956 24.4387 99.5609 25.3333 99.5609 26.008C99.5609 26.8587 99.8983 27.4893 100.573 27.9C101.248 28.2813 102.289 28.472 103.697 28.472C103.814 28.472 103.873 28.56 103.873 28.736C103.873 28.912 103.8 29 103.653 29C103.272 29 102.436 28.9707 101.145 28.912C99.6783 28.8533 98.5636 28.824 97.8009 28.824C97.0969 28.824 96.2756 28.8533 95.3369 28.912C94.5156 28.9707 93.8409 29 93.3129 29C93.1956 29 93.1369 28.912 93.1369 28.736C93.1369 28.56 93.1956 28.472 93.3129 28.472C94.1929 28.472 95.1463 28.0027 96.1729 27.064C97.2289 26.096 98.1383 24.7467 98.9009 23.016L108.185 1.104C108.185 1.016 108.288 0.971999 108.493 0.971999C108.757 0.971999 108.948 1.03067 109.065 1.148L118.921 25.304C119.361 26.3307 119.684 27.02 119.889 27.372C120.124 27.724 120.446 28.0027 120.857 28.208C121.268 28.384 121.884 28.472 122.705 28.472ZM103.785 14.788H109.725L106.733 7.616L103.785 14.788ZM154.002 28.472C154.09 28.472 154.134 28.56 154.134 28.736C154.163 28.912 154.119 29 154.002 29H149.514C147.783 29 146.698 28.912 146.258 28.736C145.847 28.56 145.158 27.7093 144.19 26.184C143.251 24.6587 142.298 23.2507 141.33 21.96L135.654 14.26L133.938 15.976V25.436C133.938 26.4333 133.982 27.1227 134.07 27.504C134.158 27.856 134.393 28.1053 134.774 28.252C135.185 28.3987 135.889 28.472 136.886 28.472C136.945 28.472 136.974 28.56 136.974 28.736C136.974 28.912 136.945 29 136.886 29C135.918 29 135.185 28.9853 134.686 28.956L131.386 28.912L128.35 28.956C127.793 28.9853 127.045 29 126.106 29C126.047 29 126.018 28.912 126.018 28.736C126.018 28.56 126.047 28.472 126.106 28.472C127.015 28.472 127.675 28.3987 128.086 28.252C128.497 28.1053 128.775 27.8267 128.922 27.416C129.069 26.976 129.142 26.316 129.142 25.436V5.064C129.142 4.184 129.069 3.53867 128.922 3.128C128.775 2.71733 128.497 2.43866 128.086 2.292C127.675 2.116 127.059 2.028 126.238 2.028C126.15 2.028 126.106 1.94 126.106 1.764C126.106 1.588 126.15 1.5 126.238 1.5L128.35 1.544C129.641 1.60267 130.682 1.632 131.474 1.632C132.266 1.632 133.337 1.60267 134.686 1.544L136.93 1.5C136.989 1.5 137.018 1.588 137.018 1.764C137.018 1.94 136.989 2.028 136.93 2.028C136.05 2.028 135.405 2.116 134.994 2.292C134.583 2.468 134.305 2.76133 134.158 3.172C134.041 3.58267 133.967 4.24267 133.938 5.152V14.612L142.386 5.944C143.149 5.18133 143.53 4.448 143.53 3.744C143.53 3.216 143.325 2.80533 142.914 2.512C142.503 2.18933 141.946 2.028 141.242 2.028C141.125 2.028 141.066 1.94 141.066 1.764C141.066 1.588 141.11 1.5 141.198 1.5L143.618 1.544C145.261 1.60267 146.551 1.632 147.49 1.632C148.487 1.632 149.514 1.60267 150.57 1.544L152.242 1.5C152.33 1.5 152.374 1.588 152.374 1.764C152.374 1.94 152.33 2.028 152.242 2.028C150.951 2.028 149.529 2.40933 147.974 3.172C146.419 3.90533 144.982 4.91733 143.662 6.208L138.734 11.136L144.894 19.496C147.123 22.4587 148.693 24.512 149.602 25.656C150.541 26.7707 151.303 27.5187 151.89 27.9C152.506 28.2813 153.21 28.472 154.002 28.472ZM178.633 22.004C178.692 21.9453 178.765 21.916 178.853 21.916C178.941 21.916 179.029 21.9453 179.117 22.004C179.205 22.0333 179.235 22.0627 179.205 22.092C178.912 23.9987 178.765 26.0813 178.765 28.34C178.765 28.5747 178.721 28.7507 178.633 28.868C178.545 28.956 178.369 29 178.105 29H158.041C157.924 29 157.865 28.912 157.865 28.736C157.865 28.56 157.909 28.472 157.997 28.472C158.877 28.472 159.508 28.3987 159.889 28.252C160.3 28.1053 160.564 27.8267 160.681 27.416C160.828 27.0053 160.901 26.3453 160.901 25.436V5.064C160.901 4.184 160.828 3.53867 160.681 3.128C160.535 2.71733 160.256 2.43866 159.845 2.292C159.435 2.116 158.819 2.028 157.997 2.028C157.909 2.028 157.851 1.94 157.821 1.764C157.821 1.588 157.851 1.5 157.909 1.5H176.873C177.108 1.5 177.225 1.632 177.225 1.896L177.313 7.704C177.313 7.792 177.225 7.836 177.049 7.836C176.903 7.836 176.815 7.80667 176.785 7.748C176.287 6.10533 175.377 4.81467 174.057 3.876C172.767 2.908 171.227 2.424 169.437 2.424H168.601C167.692 2.424 167.032 2.49733 166.621 2.644C166.24 2.76133 165.991 2.996 165.873 3.348C165.756 3.7 165.683 4.28666 165.653 5.108V14.084H171.153C172.649 14.084 173.749 13.82 174.453 13.292C175.157 12.764 175.509 11.9133 175.509 10.74C175.509 10.6227 175.612 10.564 175.817 10.564C176.023 10.564 176.125 10.6373 176.125 10.784L176.081 13.204C176.052 13.556 176.037 14.0547 176.037 14.7C176.037 15.6387 176.052 16.3427 176.081 16.812L176.125 19.188C176.125 19.3347 176.037 19.408 175.861 19.408C175.773 19.408 175.685 19.3933 175.597 19.364C175.539 19.3053 175.509 19.2467 175.509 19.188C175.509 17.9267 175.113 16.9733 174.321 16.328C173.559 15.6533 172.473 15.316 171.065 15.316H165.653V25.26C165.653 26.4333 165.829 27.196 166.181 27.548C166.563 27.9 167.34 28.076 168.513 28.076H169.745C171.652 28.076 173.397 27.5333 174.981 26.448C176.565 25.3333 177.783 23.852 178.633 22.004ZM189.997 5.68C189.997 6.736 190.276 7.68933 190.833 8.54C191.39 9.39067 192.065 10.1387 192.857 10.784C193.678 11.4 194.778 12.148 196.157 13.028C197.653 13.996 198.826 14.832 199.677 15.536C200.557 16.24 201.305 17.0907 201.921 18.088C202.537 19.056 202.845 20.1707 202.845 21.432C202.845 23.9253 201.965 25.9053 200.205 27.372C198.474 28.8093 196.23 29.528 193.473 29.528C192.153 29.528 190.745 29.352 189.249 29C187.753 28.6187 186.756 28.208 186.257 27.768C186.11 27.68 186.008 27.592 185.949 27.504C185.92 27.3867 185.89 27.196 185.861 26.932L185.685 19.936C185.656 19.8187 185.714 19.7453 185.861 19.716C186.037 19.6867 186.154 19.7307 186.213 19.848C187.034 21.5493 187.797 22.9867 188.501 24.16C189.234 25.304 190.114 26.3013 191.141 27.152C192.168 28.0027 193.326 28.428 194.617 28.428C197.198 28.428 198.489 27.02 198.489 24.204C198.489 22.8547 198.181 21.6667 197.565 20.64C196.978 19.6133 196.245 18.7627 195.365 18.088C194.514 17.384 193.37 16.5627 191.933 15.624C190.613 14.7733 189.557 14.04 188.765 13.424C187.973 12.7787 187.298 12.016 186.741 11.136C186.213 10.256 185.949 9.25867 185.949 8.144C185.949 6.56 186.389 5.24 187.269 4.184C188.178 3.09867 189.337 2.30667 190.745 1.808C192.153 1.28 193.649 1.016 195.233 1.016C196.26 1.016 197.33 1.11867 198.445 1.324C199.589 1.5 200.469 1.72 201.085 1.984C201.349 2.13067 201.525 2.27733 201.613 2.424C201.701 2.54133 201.745 2.688 201.745 2.864V9.332C201.745 9.42 201.672 9.49333 201.525 9.552C201.378 9.58133 201.276 9.552 201.217 9.464C201.129 9.288 200.806 8.54 200.249 7.22C199.721 5.87067 198.9 4.668 197.785 3.612C196.7 2.52667 195.453 1.984 194.045 1.984C192.872 1.984 191.904 2.336 191.141 3.04C190.378 3.71467 189.997 4.59467 189.997 5.68ZM236.852 28.472C236.911 28.472 236.94 28.56 236.94 28.736C236.94 28.912 236.911 29 236.852 29C236.031 29 235.356 28.9853 234.828 28.956L231.528 28.912L228.36 28.956C227.803 28.9853 227.04 29 226.072 29C226.013 29 225.969 28.912 225.94 28.736C225.94 28.56 225.984 28.472 226.072 28.472C226.981 28.472 227.627 28.3987 228.008 28.252C228.419 28.1053 228.683 27.8267 228.8 27.416C228.917 27.0053 228.976 26.3453 228.976 25.436V15.316H216.304V25.436C216.304 26.316 216.377 26.9613 216.524 27.372C216.7 27.7827 216.993 28.076 217.404 28.252C217.815 28.3987 218.46 28.472 219.34 28.472C219.428 28.472 219.472 28.56 219.472 28.736C219.472 28.912 219.428 29 219.34 29C218.372 29 217.624 28.9853 217.096 28.956L213.84 28.912L210.804 28.956C210.247 28.9853 209.513 29 208.604 29C208.516 29 208.472 28.912 208.472 28.736C208.472 28.56 208.516 28.472 208.604 28.472C209.484 28.472 210.115 28.3987 210.496 28.252C210.907 28.1053 211.171 27.8267 211.288 27.416C211.435 27.0053 211.508 26.3453 211.508 25.436V5.064C211.537 3.832 211.361 3.02533 210.98 2.644C210.599 2.23333 209.807 2.028 208.604 2.028C208.516 2.028 208.472 1.94 208.472 1.764C208.472 1.588 208.516 1.5 208.604 1.5L210.716 1.544C212.007 1.60267 213.048 1.632 213.84 1.632C214.632 1.632 215.703 1.60267 217.052 1.544L219.296 1.5C219.355 1.5 219.384 1.588 219.384 1.764C219.384 1.94 219.355 2.028 219.296 2.028C218.416 2.028 217.771 2.116 217.36 2.292C216.949 2.468 216.671 2.776 216.524 3.216C216.407 3.62667 216.333 4.272 216.304 5.152V14.084H228.932V5.152C228.932 3.89066 228.741 3.05467 228.36 2.644C228.008 2.23333 227.231 2.028 226.028 2.028C225.969 2.028 225.925 1.94 225.896 1.764C225.896 1.588 225.94 1.5 226.028 1.5L228.184 1.544C229.475 1.60267 230.531 1.632 231.352 1.632C232.144 1.632 233.185 1.60267 234.476 1.544L236.72 1.5C236.808 1.5 236.852 1.588 236.852 1.764C236.852 1.94 236.808 2.028 236.72 2.028C235.84 2.028 235.195 2.116 234.784 2.292C234.403 2.43866 234.139 2.71733 233.992 3.128C233.845 3.53867 233.743 4.184 233.684 5.064V25.436C233.684 26.2867 233.772 26.932 233.948 27.372C234.153 27.7827 234.476 28.076 234.916 28.252C235.356 28.3987 236.001 28.472 236.852 28.472Z" fill="white"/>
</svg>
